<svg version="1.1" xmlns="http://www.w3.org/2000/svg" xmlns:xlink="http://www.w3.org/1999/xlink" width="169.79874" height="69.33534" viewBox="0,0,169.79874,69.33534"><g transform="translate(-163.15114,-146.66815)"><g data-paper-data="{&quot;isPaintingLayer&quot;:true}" fill="#ffab19" fill-rule="nonzero" stroke="none" stroke-width="0.5" stroke-linecap="butt" stroke-linejoin="miter" stroke-miterlimit="10" stroke-dasharray="" stroke-dashoffset="0" font-family="none" font-weight="none" font-size="none" text-anchor="none" style="mix-blend-mode: normal"><path d="M187.34172,205.82617c-0.795,1.272 -2.067,0.477 -2.067,0.477l-0.75072,-0.4692c-4.13992,-2.58745 -8.04652,-5.37192 -12.32501,-7.70833c-0.16976,-0.08841 -0.32049,-0.20833 -0.44443,-0.35202c-0.30369,-0.32643 -0.59879,-0.88403 -0.20647,-1.64857c0.0153,-0.03064 0.03162,-0.06068 0.04892,-0.09008c0.4292,-0.74834 1.0579,-0.80464 1.49799,-0.72682c0.17611,0.02397 0.34251,0.0785 0.49366,0.15808l2.65629,1.32815l-0.04749,0.09498l0.04535,0.02474l-0.03075,0.05638c3.35831,2.01245 6.55833,4.22974 9.90194,6.3195l0.75072,0.4692c0,0 1.272,0.795 0.477,2.067z"/><path d="M193.36577,169.03297c1.40366,-0.52891 1.95194,0.92931 1.95194,0.92931l0.41184,1.23552c0.24321,0.73484 0.5059,1.4637 0.79337,2.18237c2.87156,7.189 6.66318,14.70499 8.80461,22.2391l0.08848,-0.01966l0.64377,2.89698c0.02793,0.11441 0.04274,0.23396 0.04274,0.35698c0,0.07332 -0.00526,0.14541 -0.01542,0.21592c-0.04702,0.4424 -0.27356,1.02737 -1.10215,1.23489c-0.03481,0.00915 -0.07012,0.01708 -0.10588,0.02375c-0.61113,0.12133 -1.01845,-0.07363 -1.28429,-0.33553l-1.2887,-0.80544l0.60719,-0.9715c-1.96136,-8.01686 -6.11262,-16.075 -9.17577,-23.72132c-0.30929,-0.77322 -0.58917,-1.55831 -0.85399,-2.34786l-0.41184,-1.23552c0,0 -0.50954,-1.34908 0.89411,-1.878z"/><path d="M227.13604,171.84863c1.47087,0.29417 1.1767,1.76505 1.1767,1.76505l-0.42104,0.86643c-1.35274,5.86862 -2.10629,11.77021 -3.28552,17.66637c0,0 -0.29417,1.47087 -1.76505,1.1767c-1.47087,-0.29417 -1.1767,-1.76505 -1.1767,-1.76505c1.18466,-5.92329 1.94471,-11.85517 3.30392,-17.75186l0.40264,-0.78093c0,0 0.29417,-1.47087 1.76505,-1.1767z"/><path d="M258.40068,150.97403c1.34164,0.67082 0.67082,2.01246 0.67082,2.01246l-1.01696,0.70604c-0.28455,0.33862 -0.56911,0.67723 -0.85366,1.01585c-1.53243,1.75627 -2.58331,3.97406 -3.7704,5.97728c-3.24771,5.48052 -6.33147,10.87714 -6.97509,17.31334c0,0 -0.14926,1.49256 -1.64181,1.3433c-1.49256,-0.14926 -1.3433,-1.64181 -1.3433,-1.64181c0.85773,-8.57734 5.98986,-18.27298 11.43389,-24.92215c0.28455,-0.33862 0.56911,-0.67723 0.85366,-1.01585l0.6304,-0.11764c0,0 0.67082,-1.34164 2.01246,-0.67082z"/><path d="M317.10891,147.46592c0.73135,1.30963 -0.64286,2.07501 -0.64286,2.07501l-0.8459,0.41976c-2.53039,1.22638 -5.16111,2.17191 -7.69256,3.43764c-8.07266,3.99392 -15.1255,9.82787 -23.16915,13.8497c0,0 -1.34164,0.67082 -2.01246,-0.67082c-0.67082,-1.34164 0.67082,-2.01246 0.67082,-2.01246c8.04393,-4.02196 15.12129,-9.79016 23.16915,-13.8497c2.52043,-1.26022 5.21566,-2.16605 7.70067,-3.44168l0.8459,-0.41976c0,0 1.24504,-0.69732 1.97639,0.61231z"/><path d="M332.94769,186.84312c0.0671,1.4985 -1.4314,1.5656 -1.4314,1.5656l-0.47894,0.0015c-0.3432,0 -0.6864,0 -1.0296,0c-8.67968,0 -17.4147,0.95446 -26.10347,1.23474c0,0 -1.49922,0.04836 -1.54758,-1.45086c-0.04836,-1.49922 1.45086,-1.54758 1.45086,-1.54758c8.72133,-0.28133 17.48732,-1.2363 26.20019,-1.2363c0.3432,0 0.6864,0 1.0296,0l0.34474,0.0015c0,0 1.4985,-0.0671 1.5656,1.4314z"/><path d="M163.16114,212.71048c0.14565,-1.49291 1.63856,-1.34726 1.63856,-1.34726l1.13689,0.11368c4.25186,0.42519 8.50729,0.82367 12.76665,1.23935l0.00038,-0.00383l2.96861,0.29686c0.1928,0.01691 0.37514,0.07029 0.54007,0.1532c0.40979,0.186 0.8987,0.59194 0.82226,1.46334c-0.00176,0.02176 -0.00398,0.04338 -0.00665,0.06487c-0.10101,0.85996 -0.65678,1.15917 -1.09323,1.26019c-0.12591,0.0343 -0.25842,0.05261 -0.3952,0.05261h-2.0592v-0.19677c-4.61885,-0.45418 -9.23214,-0.8837 -13.8422,-1.3447l-1.12968,-0.11297c0,0 -1.49291,-0.14565 -1.34726,-1.63856z"/></g></g></svg>