<svg version="1.1" xmlns="http://www.w3.org/2000/svg" xmlns:xlink="http://www.w3.org/1999/xlink" width="93.76746" height="98.49215" viewBox="0,0,93.76746,98.49215"><g transform="translate(-192.32102,-131.84941)"><g data-paper-data="{&quot;isPaintingLayer&quot;:true}" fill="none" fill-rule="evenodd" stroke="none" stroke-width="none" stroke-linecap="none" stroke-linejoin="none" stroke-miterlimit="10" stroke-dasharray="" stroke-dashoffset="0" font-family="none" font-weight="none" font-size="none" text-anchor="none" style="mix-blend-mode: normal"><g id="tail"><path d="M224.7,201.1c0.8,0.4 2.5,1.3 0.1,4.7c-2.4,3.4 -9.3,4.1 -10.1,4.1c-3.1,0.1 -6.9,0.1 -11.1,-1.3c-12.2,-4 -12.3,-17.1 -8.4,-19.2c3.8,-2.1 5.5,6 11,10.9c2.4,2.2 5.3,3 7.7,3.5c3.4,0.6 9.9,-3.2 10.8,-2.7z" fill="#ffab19" stroke="#001026" stroke-width="1.2" stroke-linecap="round" stroke-linejoin="round"/><path d="M199.9,193c1.6,2.7 4.7,6.5 4.7,6.5c0,0 -3.7,-0.9 -5.8,0.8c-1.7,1.3 -1.3,3.5 -1.1,4.2c-1.3,-1.3 -2.9,-3.1 -3.9,-6.6c-1,-3.5 0,-7.7 2,-8.3c2,-0.4 2.5,1.1 4.1,3.4z" id="detail" fill="#ffffff" stroke="none" stroke-width="1" stroke-linecap="butt" stroke-linejoin="miter"/></g><path d="M229.7,211.5c-1.8,1.2 -8,5.6 -15.9,8.1l-0.4,0.1c-0.4,0.1 -0.6,0.6 -0.4,1c1.7,2.4 4.8,7.2 -0.7,8.9c-5.3,1.7 -15.2,-12.4 -11,-16.1c1.9,-1.4 3.6,-0.7 4.5,-0.3c0.5,0.2 1,0.2 1.5,0.1c1.2,-0.4 3.4,-1.2 5.1,-2.1c4.3,-2.2 5.3,-3.1 7.3,-4.6c2,-1.5 6.6,-5.2 10.3,-2c3.2,2.7 1.4,5.7 -0.3,6.9z" id="leg" fill="#ffab19" stroke="#001026" stroke-width="1.2" stroke-linecap="round" stroke-linejoin="round"/><g id="body-and-leg"><path d="M245.7,214c2.1,1.9 6.7,5.8 6.7,5.8c0,0 14.3,-2.5 14.3,4.7c0,4.3 -7.2,5.3 -16.9,4.4c-0.6,-0.1 -1.2,-0.3 -1.7,-0.7c-2.2,-1.9 -8.5,-7.5 -12.5,-11.4c-5.9,-5.8 -10.8,-9.6 -10.8,-9.6c-8.5,-8.3 -1.6,-11.8 1.1,-16.6c2.5,-4.1 3.6,-3.3 9.6,-2.1c3.4,0.5 5.4,0.8 7.6,0.7c3.3,-0.1 2.7,4.7 1.8,7.2c0,0 -1.4,3.7 -2.7,5.6c-1.6,2.3 -2.8,3.8 -4,4.7z" id="body" fill="#ffab19" stroke="#001026" stroke-width="1.2" stroke-linecap="round" stroke-linejoin="round"/><path d="M237.3,206.6c0,0 -1.5,-1.2 -3.1,-2.7c-2,-1.8 -4,-3.3 -2,-6.4c1.8,-2.4 3.5,-5.6 8,-2.7c4.3,2.7 2.4,5.2 2.4,5.2c-2.2,4.5 -5.3,6.6 -5.3,6.6z" id="tummy" fill="#ffffff" stroke="none" stroke-width="1" stroke-linecap="butt" stroke-linejoin="miter"/></g><path d="M229.81602,189.73078c-2.10467,2.59392 0.55844,0.10396 -1.80883,2.96128c-2.08355,2.54373 -5.81959,-0.89755 -9.44673,-1.94656c-6.88006,-2.17443 -12.83247,-3.88086 -15.11223,-8.34592c-2.9202,-5.53953 4.1601,-4.50166 8.15795,-3.23616c2.41751,0.74816 4.92901,1.4406 6.60159,2.04867c0.74668,-0.00637 13.71292,5.92477 11.60825,8.51869z" data-paper-data="{&quot;origPos&quot;:null,&quot;origRot&quot;:0}" id="arm" fill="#ffab19" stroke="#001026" stroke-width="1.2" stroke-linecap="round" stroke-linejoin="round"/><g data-paper-data="{&quot;origPos&quot;:null,&quot;origRot&quot;:0}" id="head"><path d="M256.32608,135.60007c0.32248,-0.16126 0.80623,-0.00004 0.85586,0.40927l1.25333,10.9398c0,0 5.76791,5.45722 7.24411,8.96733c2.49341,5.85431 2.03472,10.33199 2.03472,10.33199c0,0 6.78486,2.96407 7.2689,8.76887c0.48404,5.8048 -5.22101,15.97595 -24.33469,17.31654c-19.11368,1.34059 -33.46487,-5.59218 -39.0967,-17.7845c-5.63183,-12.19231 7.16791,-24.29879 6.47336,-23.57935l0.13548,-18.02225c-0.04964,-0.40931 0.4837,-0.64501 0.85582,-0.39696l11.02719,9.33923c0,0 4.67605,-1.12897 9.36458,-0.74471c2.80319,0.14869 5.15988,0.64471 7.39254,1.32678z" fill="#ffab19" stroke="#001026" stroke-width="1.2" stroke-linecap="butt" stroke-linejoin="miter"/><path d="M267.36682,166.60817c0,0 6.6236,2.64159 7.10764,8.44639c0.48404,5.8048 -5.55593,15.43022 -24.45876,16.69638c-24.63319,1.96106 -34.25913,-13.75363 -26.29661,-23.44116c7.97491,-9.78677 18.25795,0.66882 26.66753,1.11489c7.20644,0.39653 8.78135,-5.75568 16.98021,-2.81649z" id="face" fill="#ffffff" stroke="none" stroke-width="1" stroke-linecap="butt" stroke-linejoin="miter"/><path d="M234.78325,173.32018c0.04959,-0.39691 0.4837,-0.64501 0.86822,-0.49619c1.79855,0.93016 6.95852,3.18732 12.86263,4.32813c5.32114,0.96719 8.53365,1.06624 10.05927,0.95453c0.50854,-0.03724 0.84346,0.5085 0.58302,0.97984c-1.22781,2.56758 -5.92835,9.53859 -16.27295,7.64141c-8.90581,-2.12052 -9.00538,-8.58272 -8.10018,-13.40772z" id="mouth" fill="#ffffff" stroke="#001026" stroke-width="1.2" stroke-linecap="round" stroke-linejoin="round"/><path d="M285.48848,169.98095c-5.13487,3.18797 -12.29171,2.39452 -12.29171,2.39452" id="whisker" fill="none" stroke="#001026" stroke-width="1.2" stroke-linecap="round" stroke-linejoin="round"/><path d="M282.80991,180.93336c-6.31338,-0.28494 -9.94773,-2.65381 -9.94773,-2.65381" id="whisker" fill="none" stroke="#001026" stroke-width="1.2" stroke-linecap="round" stroke-linejoin="round"/><path d="M250.31206,166.79513c2.0838,0.26036 4.24203,0.73158 4.25447,1.43858c-0.07435,1.4016 -1.90992,3.99402 -3.50998,3.89488c-1.81091,-0.02471 -5.66855,-3.02615 -5.47018,-4.6138c0.04955,-1.20314 2.74112,-0.96762 4.72569,-0.71965z" id="nose" fill="#001026" stroke="#001026" stroke-width="1.2" stroke-linecap="round" stroke-linejoin="round"/><path d="M205.84523,159.72752c0,0 8.1865,3.84464 11.27515,7.35466" id="whisker" fill="none" stroke="#001026" stroke-width="1.2" stroke-linecap="round" stroke-linejoin="round"/><path d="M216.98412,170.59237c-4.47759,1.15376 -11.68412,-0.85522 -11.68412,-0.85522" id="whisker" fill="none" stroke="#001026" stroke-width="1.2" stroke-linecap="round" stroke-linejoin="round"/><g id="eye"><path d="M263.4716,156.64839c2.31971,4.82483 1.78663,9.89788 -1.21494,11.33684c-3.00156,1.43896 -7.30571,-1.21515 -9.72465,-6.05238c-2.31971,-4.82483 -1.78663,-9.89788 1.21494,-11.33684c3.01396,-1.53819 7.40494,1.22755 9.72465,6.05238z" id="pupil" fill="#ffffff" stroke="#001026" stroke-width="1.2" stroke-linecap="round" stroke-linejoin="round"/><path d="M262.36799,162.25482c-0.13638,1.09151 -1.04179,1.88538 -2.03408,1.7614c-0.99228,-0.12398 -1.67453,-1.11622 -1.53815,-2.20774c0.13638,-1.09151 1.04179,-1.88538 2.03408,-1.7614c0.99228,0.12398 1.67453,1.11622 1.53815,2.20774" id="pupil" fill="#001026" stroke="none" stroke-width="1" stroke-linecap="butt" stroke-linejoin="miter"/></g><g id="eye"><path d="M238.5158,156.35203c2.43133,4.738 1.56337,10.07154 -1.35136,11.62213c-3.5101,1.4762 -7.70258,-0.45852 -10.13391,-5.19652c-2.53056,-4.7504 -2.02232,-10.43121 1.32652,-12.2299c3.36124,-1.89791 7.72742,1.06629 10.15875,5.80428z" fill="#ffffff" stroke="#001026" stroke-width="1.2" stroke-linecap="round" stroke-linejoin="round"/><path d="M237.20133,162.03289c-0.13638,1.09151 -1.04179,1.88538 -2.03408,1.7614c-0.99228,-0.12398 -1.67453,-1.11622 -1.53815,-2.20774c0.13638,-1.09151 1.04179,-1.88538 2.03408,-1.7614c0.97989,0.22321 1.67453,1.11622 1.53815,2.20774" id="pupil" fill="#001026" stroke="none" stroke-width="1" stroke-linecap="butt" stroke-linejoin="miter"/></g></g><path d="M248.00328,192.91212c-2.93325,1.59814 0.47689,0.3086 -2.79942,2.05042c-2.89463,1.55976 -5.04049,-3.04411 -7.99578,-5.39418c-5.53544,-4.62843 -10.39102,-8.47113 -10.80063,-13.46776c-0.5931,-6.23396 5.55992,-2.58044 8.77568,0.11087c1.95108,1.61163 4.01028,3.20751 5.32575,4.40619c0.69295,0.27819 10.42765,10.69631 7.4944,12.29445z" data-paper-data="{&quot;origPos&quot;:null,&quot;origRot&quot;:0}" id="arm" fill="#ffab19" stroke="#001026" stroke-width="1.2" stroke-linecap="round" stroke-linejoin="round"/></g></g></svg>