<svg version="1.1" xmlns="http://www.w3.org/2000/svg" xmlns:xlink="http://www.w3.org/1999/xlink" width="128.92654" height="62.57644" viewBox="0,0,128.92654,62.57644"><g transform="translate(-183.30044,-167.95948)"><g data-paper-data="{&quot;isPaintingLayer&quot;:true}" fill="none" fill-rule="evenodd" stroke="none" stroke-width="none" stroke-linecap="none" stroke-linejoin="none" stroke-miterlimit="10" stroke-dasharray="" stroke-dashoffset="0" font-family="none" font-weight="none" font-size="none" text-anchor="none" style="mix-blend-mode: normal"><g data-paper-data="{&quot;origPos&quot;:null,&quot;origRot&quot;:0}" id="tail"><path d="M215.34943,211.46858c0.88836,-0.104 2.80353,-0.28318 2.66008,3.87608c-0.14345,4.15926 -5.53061,8.52715 -6.1997,8.96569c-2.5379,1.78299 -5.71607,3.86608 -9.99623,4.99753c-12.39632,3.34235 -19.66111,-7.55915 -17.55048,-11.45341c2.02699,-3.83944 7.88906,2.00317 15.17513,3.08635c3.21326,0.52436 6.07725,-0.39627 8.35861,-1.29372c3.17253,-1.362 6.52579,-8.10333 7.55261,-8.17852z" fill="#ffab19" stroke="#001026" stroke-width="1.2" stroke-linecap="round" stroke-linejoin="round"/><path d="M190.16743,218.28892c2.81826,1.38109 7.49406,2.8599 7.49406,2.8599c0,0 -3.5879,1.27554 -4.41235,3.84853c-0.70918,2.01917 0.83136,3.6399 1.38236,4.11571c-1.7999,-0.37463 -4.1248,-1.003 -6.87979,-3.38208c-2.75499,-2.37908 -4.22099,-6.43998 -2.87717,-8.03815c1.45345,-1.4309 2.6939,-0.45045 5.29289,0.59609z" id="detail" fill="#ffffff" stroke="none" stroke-width="1" stroke-linecap="butt" stroke-linejoin="miter"/></g><path d="M229.7,211.5c-1.8,1.2 -8,5.6 -15.9,8.1l-0.4,0.1c-0.4,0.1 -0.6,0.6 -0.4,1c1.7,2.4 4.8,7.2 -0.7,8.9c-5.3,1.7 -15.2,-12.4 -11,-16.1c1.9,-1.4 3.6,-0.7 4.5,-0.3c0.5,0.2 1,0.2 1.5,0.1c1.2,-0.4 3.4,-1.2 5.1,-2.1c4.3,-2.2 5.3,-3.1 7.3,-4.6c2,-1.5 6.6,-5.2 10.3,-2c3.2,2.7 1.4,5.7 -0.3,6.9z" id="leg" fill="#ffab19" stroke="#001026" stroke-width="1.2" stroke-linecap="round" stroke-linejoin="round"/><path d="M247.62648,213.35974c0.5,0.4 6.6,7.6 8.6,5.8c2.4,-2.1 5.7,-6.2 9.3,-2.9c3.6,3.3 -3.2,8.9 -6.1,10.4c-6.9,3.1 -12.5,-2.8 -13.7,-4.4c-1.2,-1.6 -3.3,-4.3 -3.3,-6.9c0.1,-2.8 3.5,-3.5 5.2,-2z" data-paper-data="{&quot;origPos&quot;:null}" id="arm" fill="#ffab19" stroke="#001026" stroke-width="1.2" stroke-linecap="round" stroke-linejoin="round"/><g id="body-and-leg"><path d="M245.7,214c2.1,1.9 6.7,5.8 6.7,5.8c0,0 14.3,-2.5 14.3,4.7c0,4.3 -7.2,5.3 -16.9,4.4c-0.6,-0.1 -1.2,-0.3 -1.7,-0.7c-2.2,-1.9 -8.5,-7.5 -12.5,-11.4c-5.9,-5.8 -10.8,-9.6 -10.8,-9.6c-8.5,-8.3 -1.6,-11.8 1.1,-16.6c2.5,-4.1 3.6,-3.3 9.6,-2.1c3.4,0.5 5.4,0.8 7.6,0.7c3.3,-0.1 2.7,4.7 1.8,7.2c0,0 -1.4,3.7 -2.7,5.6c-1.6,2.3 -2.8,3.8 -4,4.7z" id="body" fill="#ffab19" stroke="#001026" stroke-width="1.2" stroke-linecap="round" stroke-linejoin="round"/><path d="M237.3,206.6c0,0 -1.5,-1.2 -3.1,-2.7c-2,-1.8 -4,-3.3 -2,-6.4c1.8,-2.4 3.5,-5.6 8,-2.7c4.3,2.7 2.4,5.2 2.4,5.2c-2.2,4.5 -5.3,6.6 -5.3,6.6z" id="tummy" fill="#ffffff" stroke="none" stroke-width="1" stroke-linecap="butt" stroke-linejoin="miter"/></g><path d="M229.66539,218.672c3.29192,-1.35767 7.58319,-3.68038 9.20758,1.24521c1.57521,6.57409 -9.37921,8.57673 -13.01925,8.58948c-3.22791,0.02504 -4.44735,-3.02011 -5.4866,-5.59886c-1.81688,-4.97985 -3.53496,-9.20457 -1.00583,-12.64746c3.08922,-4.32397 5.96228,0.22637 7.01636,3.121c0.6517,1.74221 1.39965,3.51155 1.7749,4.76022c0.39983,0.42442 0.95019,0.68348 1.51283,0.53041z" data-paper-data="{&quot;origPos&quot;:null,&quot;origRot&quot;:0}" id="arm" fill="#ffab19" stroke="#001026" stroke-width="1.2" stroke-linecap="round" stroke-linejoin="round"/><g data-paper-data="{&quot;origRot&quot;:0,&quot;origPos&quot;:null}"><path d="M280.00989,229.81357c-0.16268,0.32177 -0.64713,0.48086 -0.93108,0.18191l-7.53046,-8.03381c0,0 -7.8845,-0.94053 -11.16284,-2.87767c-5.49291,-3.21216 -7.79518,-7.07991 -7.79518,-7.07991c0,0 -7.2139,1.66721 -11.06439,-2.70358c-3.85048,-4.37079 -5.33708,-15.93755 9.20581,-28.4129c14.54289,-12.47535 30.19714,-15.46941 41.98918,-9.04152c11.79204,6.4279 8.738,23.77935 8.86645,22.78763l10.6396,14.54713c0.28395,0.29895 -0.00359,0.80622 -0.45022,0.82904l-14.42129,-0.91999c0,0 -3.08012,3.69498 -7.07274,6.18274c-2.33878,1.55245 -4.52629,2.55982 -6.72522,3.34387z" fill="#ffab19" stroke="#001026" stroke-width="1.2" stroke-linecap="butt" stroke-linejoin="miter"/><path d="M252.65456,211.50823c0,0 -6.89213,1.82988 -10.74262,-2.5409c-3.85048,-4.37079 -4.74277,-15.69924 9.67526,-27.98909c18.60332,-16.2652 35.70211,-9.39197 35.08824,3.13293c-0.56464,12.61195 -15.0544,10.35206 -22.07074,15.00941c-6.02104,3.97958 -3.61608,9.85718 -11.95015,12.38766z" id="face" fill="#ffffff" stroke="none" stroke-width="1" stroke-linecap="butt" stroke-linejoin="miter"/><path d="M266.65102,191.97249c-8.84427,5.69112 -15.84399,1.03345 -17.95652,-0.8737c-0.42022,-0.33677 -0.31818,-0.9689 0.16626,-1.12799c1.45334,-0.47728 4.38644,-1.79142 8.93914,-4.71082c5.02574,-3.30181 8.93849,-7.35279 10.24773,-8.89741c0.29895,-0.28395 0.79481,-0.21973 0.99172,0.12845c2.67327,4.11748 5.04041,10.13135 -2.38833,15.48147z" data-paper-data="{&quot;origPos&quot;:null,&quot;index&quot;:null}" id="mouth" fill="#ffffff" stroke="#001026" stroke-width="1.2" stroke-linecap="round" stroke-linejoin="round"/><path d="M236.09694,219.60855c2.22044,-5.62136 8.43839,-9.25276 8.43839,-9.25276" id="whisker" fill="none" stroke="#001026" stroke-width="1.2" stroke-linecap="round" stroke-linejoin="round"/><path d="M231.71506,209.21966c5.23764,-3.53654 9.56768,-3.80256 9.56768,-3.80256" id="whisker" fill="none" stroke="#001026" stroke-width="1.2" stroke-linecap="round" stroke-linejoin="round"/><path d="M266.23279,201.18681c-1.82793,1.03377 -3.84135,1.94268 -4.27299,1.3826c-0.77623,-1.16939 -0.84893,-4.34503 0.49455,-5.21971c1.46834,-1.06018 6.35487,-0.95162 7.14251,0.44109c0.67777,0.9953 -1.62319,2.41148 -3.36408,3.39603z" id="nose" fill="#001026" stroke="#001026" stroke-width="1.2" stroke-linecap="round" stroke-linejoin="round"/><path d="M306.14105,180.34022c0,0 -8.86416,1.79631 -13.43675,0.82089" id="whisker" fill="none" stroke="#001026" stroke-width="1.2" stroke-linecap="round" stroke-linejoin="round"/><path d="M290.72022,178.26225c2.90603,-3.59652 9.8888,-6.28185 9.8888,-6.28185" id="whisker" fill="none" stroke="#001026" stroke-width="1.2" stroke-linecap="round" stroke-linejoin="round"/><g id="eye"><path d="M261.72117,217.17979c-4.73951,-2.4894 -7.33714,-6.87942 -5.78599,-9.82458c1.55115,-2.94516 6.58895,-3.38168 11.4155,-0.94151c4.73951,2.4894 7.33714,6.87942 5.78599,9.82458c-1.50192,3.0322 -6.67599,3.43091 -11.4155,0.94151z" id="pupil" fill="#ffffff" stroke="#001026" stroke-width="1.2" stroke-linecap="round" stroke-linejoin="round"/><path d="M259.26339,212.02136c-0.5415,-0.95749 -0.28819,-2.1347 0.58225,-2.62697c0.87044,-0.49227 2.00984,-0.10269 2.55134,0.85479c0.5415,0.95749 0.28819,2.1347 -0.58225,2.62697c-0.87044,0.49227 -2.00984,0.10269 -2.55134,-0.85479" id="pupil" fill="#001026" stroke="none" stroke-width="1" stroke-linecap="butt" stroke-linejoin="miter"/></g><g id="eye"><path d="M281.92975,202.5342c-4.77732,-2.35312 -7.2615,-7.15196 -5.84663,-10.13494c1.93714,-3.27834 6.45626,-4.22572 11.23358,-1.87259c4.86437,2.3039 7.84441,7.16696 6.22904,10.60797c-1.56614,3.52806 -6.83867,3.75268 -11.61599,1.39956z" fill="#ffffff" stroke="#001026" stroke-width="1.2" stroke-linecap="round" stroke-linejoin="round"/><path d="M279.59683,197.19028c-0.5415,-0.95749 -0.28819,-2.1347 0.58225,-2.62697c0.87044,-0.49227 2.00984,-0.10269 2.55134,0.85479c0.5415,0.95749 0.28819,2.1347 -0.58225,2.62697c-0.91967,0.40523 -2.00984,0.10269 -2.55134,-0.85479" id="pupil" fill="#001026" stroke="none" stroke-width="1" stroke-linecap="butt" stroke-linejoin="miter"/></g></g></g></g></svg>